<?xml version="1.0" encoding="UTF-8" standalone="no"?>
<!-- Created with Inkscape (http://www.inkscape.org/) -->

<svg
   xmlns:dc="http://purl.org/dc/elements/1.1/"
   xmlns:cc="http://creativecommons.org/ns#"
   xmlns:rdf="http://www.w3.org/1999/02/22-rdf-syntax-ns#"
   xmlns:svg="http://www.w3.org/2000/svg"
   xmlns="http://www.w3.org/2000/svg"
   xmlns:sodipodi="http://sodipodi.sourceforge.net/DTD/sodipodi-0.dtd"
   xmlns:inkscape="http://www.inkscape.org/namespaces/inkscape"
   width="210mm"
   height="297mm"
   viewBox="0 0 210 297"
   version="1.1"
   id="svg8"
   sodipodi:docname="Human.svg"
   inkscape:version="0.92.2 5c3e80d, 2017-08-06">
  <defs
     id="defs2">
    <inkscape:path-effect
       oposite_fuse="false"
       fuse_paths="false"
       discard_orig_path="true"
       mode="free"
       is_visible="true"
       id="path-effect972"
       center_point="130.0637,121.56877"
       end_point="130.0637,131.90046"
       start_point="130.0637,111.23708"
       effect="mirror_symmetry" />
    <inkscape:path-effect
       oposite_fuse="false"
       fuse_paths="false"
       discard_orig_path="true"
       mode="free"
       is_visible="true"
       id="path-effect964"
       center_point="179.64362,120.02461"
       end_point="179.64362,136.49195"
       start_point="179.64362,103.55726"
       effect="mirror_symmetry" />
    <inkscape:path-effect
       oposite_fuse="false"
       fuse_paths="false"
       discard_orig_path="true"
       mode="free"
       is_visible="true"
       id="path-effect956"
       center_point="124.2038,118.48761"
       end_point="124.2038,128.8193"
       start_point="124.2038,108.15592"
       effect="mirror_symmetry" />
    <inkscape:path-effect
       oposite_fuse="false"
       fuse_paths="false"
       discard_orig_path="true"
       mode="free"
       is_visible="true"
       id="path-effect948"
       center_point="173.78372,121.9779"
       end_point="173.78372,138.44525"
       start_point="173.78372,105.51056"
       effect="mirror_symmetry" />
    <inkscape:path-effect
       effect="mirror_symmetry"
       start_point="24.585511,116.37366"
       end_point="24.585511,137.03704"
       center_point="24.585511,126.70535"
       id="path-effect930"
       is_visible="true"
       mode="free"
       discard_orig_path="true"
       fuse_paths="false"
       oposite_fuse="false" />
    <inkscape:path-effect
       effect="mirror_symmetry"
       start_point="74.165431,111.04491"
       end_point="74.165431,143.9796"
       center_point="74.165431,127.51226"
       id="path-effect922"
       is_visible="true"
       mode="free"
       discard_orig_path="true"
       fuse_paths="false"
       oposite_fuse="false" />
    <inkscape:path-effect
       oposite_fuse="false"
       fuse_paths="false"
       discard_orig_path="true"
       mode="free"
       is_visible="true"
       id="path-effect914"
       center_point="122.9016,30.589119"
       end_point="122.9016,40.920809"
       start_point="122.9016,20.257429"
       effect="mirror_symmetry" />
    <inkscape:path-effect
       oposite_fuse="false"
       fuse_paths="false"
       discard_orig_path="true"
       mode="free"
       is_visible="true"
       id="path-effect906"
       center_point="172.48152,39.913373"
       end_point="172.48152,56.380719"
       start_point="172.48152,23.446028"
       effect="mirror_symmetry" />
    <inkscape:path-effect
       effect="mirror_symmetry"
       start_point="23.608857,16.676379"
       end_point="23.608857,37.339759"
       center_point="23.608857,27.008069"
       id="path-effect886"
       is_visible="true"
       mode="free"
       discard_orig_path="true"
       fuse_paths="false"
       oposite_fuse="false" />
    <inkscape:path-effect
       effect="mirror_symmetry"
       start_point="79.419404,11.715442"
       end_point="79.419404,32.378822"
       center_point="79.419404,22.047132"
       id="path-effect882"
       is_visible="true"
       mode="free"
       discard_orig_path="false"
       fuse_paths="false"
       oposite_fuse="false" />
    <inkscape:path-effect
       effect="mirror_symmetry"
       start_point="73.188781,15.839892"
       end_point="73.188781,48.774583"
       center_point="73.188781,32.307237"
       id="path-effect877"
       is_visible="true"
       mode="free"
       discard_orig_path="true"
       fuse_paths="false"
       oposite_fuse="false" />
  </defs>
  <sodipodi:namedview
     id="base"
     pagecolor="#ffffff"
     bordercolor="#666666"
     borderopacity="1.0"
     inkscape:pageopacity="0.0"
     inkscape:pageshadow="2"
     inkscape:zoom="1.1493699"
     inkscape:cx="494.53873"
     inkscape:cy="782.41963"
     inkscape:document-units="mm"
     inkscape:current-layer="layer1"
     showgrid="false"
     inkscape:snap-bbox="false"
     inkscape:bbox-nodes="false"
     inkscape:object-paths="false"
     inkscape:snap-midpoints="false"
     inkscape:snap-smooth-nodes="false"
     inkscape:snap-nodes="false"
     inkscape:snap-bbox-edge-midpoints="false"
     inkscape:object-nodes="false"
     inkscape:window-width="1920"
     inkscape:window-height="1107"
     inkscape:window-x="0"
     inkscape:window-y="1"
     inkscape:window-maximized="1" />
  <metadata
     id="metadata5">
    <rdf:RDF>
      <cc:Work
         rdf:about="">
        <dc:format>image/svg+xml</dc:format>
        <dc:type
           rdf:resource="http://purl.org/dc/dcmitype/StillImage" />
        <dc:title></dc:title>
      </cc:Work>
    </rdf:RDF>
  </metadata>
  <g
     inkscape:label="Ebene 1"
     inkscape:groupmode="layer"
     id="layer1">
    <path
       sodipodi:nodetypes="sssss"
       inkscape:connector-curvature="0"
       id="path875"
       d="m 74.896025,31.350161 c -1.138343,10.57331 -4.981141,12.904403 4.759741,16.226376 9.163691,3.125136 7.674583,0.369905 9.519478,-11.033936 1.868766,-11.551388 -3.156083,-19.597079 -6.923257,-20.553427 -5.520654,-1.401492 -6.490555,7.322801 -7.355962,15.360987 z"
       style="opacity:1;fill:#7e8b90;fill-opacity:1;fill-rule:nonzero;stroke:#000000;stroke-width:1.5;stroke-linejoin:round;stroke-miterlimit:4;stroke-dasharray:none;stroke-opacity:1"
       inkscape:path-effect="#path-effect877"
       inkscape:original-d="m 71.481537,31.350161 c 1.138343,10.57331 4.981141,12.904403 -4.759741,16.226376 -9.163691,3.125136 -7.674583,0.369905 -9.519478,-11.033936 -1.868766,-11.551388 3.156083,-19.597079 6.923257,-20.553427 5.520654,-1.401492 6.490555,7.322801 7.355962,15.360987 z" />
    <path
       style="opacity:1;fill:#7e8b90;fill-opacity:1;fill-rule:nonzero;stroke:#000000;stroke-width:1.5;stroke-linejoin:round;stroke-miterlimit:4;stroke-dasharray:none;stroke-opacity:1"
       d="m 31.432869,34.470921 c 1.138343,10.57331 4.981141,12.904403 -4.759741,16.226376 -9.163691,3.125136 -7.674583,0.369905 -9.519478,-11.033936 -1.868766,-11.551388 3.156083,-19.597079 6.923257,-20.553427 5.520654,-1.401492 6.490555,7.322801 7.355962,15.360987 z"
       id="path863"
       inkscape:connector-curvature="0"
       sodipodi:nodetypes="sssss" />
    <path
       style="opacity:1;fill:#fbd065;fill-opacity:1;fill-rule:nonzero;stroke:#000000;stroke-width:1;stroke-linejoin:round;stroke-miterlimit:4;stroke-dasharray:none;stroke-opacity:1"
       d="m 83.02371,23.226485 c 3.133869,5.360551 3.271638,10.969246 -2.088907,14.103111 -5.360544,3.133866 -9.758411,0.0157 -12.892282,-5.344852 -1.56693,-2.680267 -0.99993,-3.719547 -0.270322,-6.502861 0.7296,-2.78333 1.412431,-5.489575 4.092703,-7.056508 2.680272,-1.566933 2.859304,0.918565 5.64263,1.648179 2.783319,0.729598 3.949248,0.472663 5.516178,3.152931 z"
       id="path879"
       inkscape:connector-curvature="0"
       sodipodi:nodetypes="sssssss" />
    <path
       sodipodi:nodetypes="sssssss"
       inkscape:connector-curvature="0"
       id="path884"
       d="m 25.792311,21.98625 c -3.133869,5.360551 -3.271638,10.969246 2.088907,14.103111 5.360544,3.133866 9.758411,0.0157 12.892282,-5.344852 1.56693,-2.680267 0.99993,-3.719547 0.270322,-6.502861 -0.7296,-2.78333 -1.412431,-5.489575 -4.092703,-7.056508 -2.680272,-1.566933 -2.859304,0.918565 -5.64263,1.648179 -2.783319,0.729598 -3.949248,0.472663 -5.516178,3.152931 z"
       style="opacity:1;fill:#fbd065;fill-opacity:1;fill-rule:nonzero;stroke:#000000;stroke-width:1;stroke-linejoin:round;stroke-miterlimit:4;stroke-dasharray:none;stroke-opacity:1"
       inkscape:path-effect="#path-effect886"
       inkscape:original-d="m 21.425403,21.98625 c 3.133869,5.360551 3.271638,10.969246 -2.088907,14.103111 -5.360544,3.133866 -9.7584113,0.0157 -12.892282,-5.344852 -1.56693,-2.680267 -0.99993,-3.719547 -0.270322,-6.502861 0.7296,-2.78333 1.412431,-5.489575 4.092703,-7.056508 2.680272,-1.566933 2.859304,0.918565 5.64263,1.648179 2.783319,0.729598 3.949248,0.472663 5.516178,3.152931 z" />
    <path
       id="ellipse831"
       style="opacity:1;fill:#deb773;fill-opacity:1;fill-rule:nonzero;stroke:#000000;stroke-width:2;stroke-linejoin:round;stroke-miterlimit:4;stroke-dasharray:none;stroke-opacity:1"
       d="m 54.2048,79.215718 c -10.172831,-0.1601 -21.434191,-4.34578 -29.279157,-4.34578 -6.471264,0 -11.71726,-9.13819 -11.717261,-20.410715 0,-11.272527 5.245996,-20.410715 11.717261,-20.410715 7.844966,0 19.093195,-8.949299 29.279157,-8.764816 10.20111,0.184757 21.14063,9.833892 28.9856,9.833893 6.47126,1e-6 11.71726,9.138189 11.71726,20.410715 0,11.272518 -5.246,20.410718 -11.71726,20.410718 -7.84497,0 -19.00233,3.43382 -28.9856,3.2767 z"
       inkscape:connector-curvature="0"
       sodipodi:nodetypes="sssssssss" />
    <path
       style="opacity:1;fill:#deb773;fill-opacity:1;fill-rule:nonzero;stroke:#000000;stroke-width:2;stroke-linejoin:round;stroke-miterlimit:4;stroke-dasharray:none;stroke-opacity:1"
       d="m 80.59404,54.893436 c 0,16.353012 -11.76795,24.201712 -25.92385,24.201712 -14.155887,0 -25.339177,-7.8487 -25.339178,-24.201712 0,-16.353009 11.475616,-29.609742 25.631508,-29.609745 14.1559,-5e-6 25.63152,13.256731 25.63152,29.609745 z"
       id="path841"
       inkscape:connector-curvature="0"
       sodipodi:nodetypes="sssss" />
    <path
       inkscape:original-d="m 170.77428,38.956297 c 1.13834,10.57331 4.98114,12.904403 -4.75975,16.226376 -9.16369,3.125136 -7.67458,0.369905 -9.51947,-11.033936 -1.86877,-11.551388 3.15608,-19.597079 6.92325,-20.553427 5.52066,-1.401492 6.49056,7.322801 7.35597,15.360987 z"
       inkscape:path-effect="#path-effect906"
       style="opacity:1;fill:#7e8b90;fill-opacity:1;fill-rule:nonzero;stroke:#000000;stroke-width:1.5;stroke-linejoin:round;stroke-miterlimit:4;stroke-dasharray:none;stroke-opacity:1"
       d="m 174.18876,38.956297 c -1.13834,10.57331 -4.98114,12.904403 4.75975,16.226376 9.16369,3.125136 7.67458,0.369905 9.51947,-11.033936 1.86877,-11.551388 -3.15608,-19.597079 -6.92325,-20.553427 -5.52066,-1.401492 -6.49056,7.322801 -7.35597,15.360987 z"
       id="path904"
       inkscape:connector-curvature="0"
       sodipodi:nodetypes="sssss" />
    <path
       sodipodi:nodetypes="sssss"
       inkscape:connector-curvature="0"
       id="path908"
       d="m 130.72561,22.132742 c 1.13834,10.57331 4.98114,12.904403 -4.75974,16.226376 -9.16369,3.125136 -7.67459,0.369905 -9.51948,-11.033936 -1.86877,-11.551388 3.15608,-19.5970792 6.92326,-20.5534272 5.52065,-1.401492 6.49055,7.3228012 7.35596,15.3609872 z"
       style="opacity:1;fill:#7e8b90;fill-opacity:1;fill-rule:nonzero;stroke:#000000;stroke-width:1.5;stroke-linejoin:round;stroke-miterlimit:4;stroke-dasharray:none;stroke-opacity:1" />
    <path
       sodipodi:nodetypes="sssssss"
       inkscape:connector-curvature="0"
       id="path910"
       d="m 182.31645,19.645435 c 3.13387,5.360551 3.27164,10.969246 -2.08891,14.103111 -5.36054,3.133866 -9.75841,0.0157 -12.89228,-5.344852 -1.56693,-2.680267 -0.99993,-3.719547 -0.27032,-6.502861 0.7296,-2.78333 1.41243,-5.489575 4.0927,-7.056508 2.68027,-1.566933 2.8593,0.918565 5.64263,1.648179 2.78332,0.729598 3.94925,0.472663 5.51618,3.152931 z"
       style="opacity:1;fill:#fbd065;fill-opacity:1;fill-rule:nonzero;stroke:#000000;stroke-width:1;stroke-linejoin:round;stroke-miterlimit:4;stroke-dasharray:none;stroke-opacity:1" />
    <path
       inkscape:original-d="m 120.71814,25.5673 c 3.13387,5.360551 3.27164,10.969246 -2.08891,14.103111 -5.36054,3.133866 -9.75841,0.0157 -12.89228,-5.344852 -1.56693,-2.680267 -0.99993,-3.719547 -0.27032,-6.502861 0.7296,-2.78333 1.41243,-5.489575 4.0927,-7.056508 2.68028,-1.566933 2.85931,0.918565 5.64263,1.648179 2.78332,0.729598 3.94925,0.472663 5.51618,3.152931 z"
       inkscape:path-effect="#path-effect914"
       style="opacity:1;fill:#fbd065;fill-opacity:1;fill-rule:nonzero;stroke:#000000;stroke-width:1;stroke-linejoin:round;stroke-miterlimit:4;stroke-dasharray:none;stroke-opacity:1"
       d="m 125.08506,25.5673 c -3.13387,5.360551 -3.27164,10.969246 2.08891,14.103111 5.36054,3.133866 9.75841,0.0157 12.89228,-5.344852 1.56693,-2.680267 0.99993,-3.719547 0.27032,-6.502861 -0.7296,-2.78333 -1.41243,-5.489575 -4.0927,-7.056508 -2.68028,-1.566933 -2.85931,0.918565 -5.64263,1.648179 -2.78332,0.729598 -3.94925,0.472663 -5.51618,3.152931 z"
       id="path912"
       inkscape:connector-curvature="0"
       sodipodi:nodetypes="sssssss" />
    <path
       sodipodi:nodetypes="sssssssss"
       inkscape:connector-curvature="0"
       d="m 150.9848,79.112121 c -10.11367,-1.107128 -20.93611,-6.323738 -28.74696,-7.054594 -6.44311,-0.602877 -10.81496,-10.190054 -9.76479,-21.413554 1.05017,-11.223502 7.12469,-19.833218 13.56781,-19.230341 7.81085,0.730856 19.8439,-7.131611 29.96837,-5.998983 10.13953,1.134312 20.13254,11.760633 27.94339,12.491489 6.44312,0.602879 10.81497,10.190053 9.7648,21.413554 -1.05018,11.223494 -7.1247,19.833222 -13.56781,19.230344 -7.81086,-0.730855 -19.23959,1.648586 -29.16481,0.562085 z"
       style="opacity:1;fill:#deb773;fill-opacity:1;fill-rule:nonzero;stroke:#000000;stroke-width:2;stroke-linejoin:round;stroke-miterlimit:4;stroke-dasharray:none;stroke-opacity:1"
       id="path916" />
    <path
       sodipodi:nodetypes="sssss"
       inkscape:connector-curvature="0"
       id="path918"
       d="m 179.88678,51.637936 c 0,16.353012 -11.76795,24.201712 -25.92385,24.201712 -14.15589,0 -25.33918,-7.8487 -25.33918,-24.201712 0,-16.353009 11.47562,-29.609742 25.63151,-29.609745 14.1559,-5e-6 25.63152,13.256731 25.63152,29.609745 z"
       style="opacity:1;fill:#deb773;fill-opacity:1;fill-rule:nonzero;stroke:#000000;stroke-width:2;stroke-linejoin:round;stroke-miterlimit:4;stroke-dasharray:none;stroke-opacity:1" />
    <path
       sodipodi:nodetypes="sssss"
       inkscape:connector-curvature="0"
       id="path920"
       d="m 75.872671,126.55518 c -1.13834,10.57331 -4.98114,12.90441 4.75975,16.22638 9.16369,3.12513 7.67458,0.3699 9.51947,-11.03394 1.86877,-11.55139 -3.15608,-19.59708 -6.92325,-20.55343 -5.52066,-1.40149 -6.49056,7.32281 -7.35597,15.36099 z"
       style="opacity:1;fill:#7e8b90;fill-opacity:1;fill-rule:nonzero;stroke:#000000;stroke-width:1.5;stroke-linejoin:round;stroke-miterlimit:4;stroke-dasharray:none;stroke-opacity:1"
       inkscape:path-effect="#path-effect922"
       inkscape:original-d="m 72.458191,126.55518 c 1.13834,10.57331 4.98114,12.90441 -4.75975,16.22638 -9.16369,3.12513 -7.67458,0.3699 -9.51947,-11.03394 -1.86877,-11.55139 3.15608,-19.59708 6.92325,-20.55343 5.52066,-1.40149 6.49056,7.32281 7.35597,15.36099 z" />
    <path
       style="opacity:1;fill:#7e8b90;fill-opacity:1;fill-rule:nonzero;stroke:#000000;stroke-width:1.5;stroke-linejoin:round;stroke-miterlimit:4;stroke-dasharray:none;stroke-opacity:1"
       d="m 32.409521,130.50816 c 1.13834,10.57331 4.98114,12.90441 -4.75974,16.22638 -9.16369,3.12514 -7.67459,0.3699 -9.51948,-11.03394 -1.86877,-11.55139 3.15608,-19.59708 6.92326,-20.55343 5.52065,-1.40149 6.49055,7.32281 7.35596,15.36099 z"
       id="path924"
       inkscape:connector-curvature="0"
       sodipodi:nodetypes="sssss" />
    <path
       style="opacity:1;fill:#fbd065;fill-opacity:1;fill-rule:nonzero;stroke:#000000;stroke-width:1;stroke-linejoin:round;stroke-miterlimit:4;stroke-dasharray:none;stroke-opacity:1"
       d="m 83.674811,119.91482 c 3.13387,5.36056 3.27164,10.96925 -2.08891,14.10312 -5.36054,3.13386 -9.75841,0.0157 -12.89228,-5.34485 -1.56693,-2.68027 -0.99993,-3.71955 -0.27032,-6.50287 0.7296,-2.78333 1.41243,-5.48957 4.0927,-7.05651 2.68027,-1.56693 2.8593,0.91857 5.64263,1.64818 2.78332,0.7296 3.94925,0.47267 5.51618,3.15293 z"
       id="path926"
       inkscape:connector-curvature="0"
       sodipodi:nodetypes="sssssss" />
    <path
       sodipodi:nodetypes="sssssss"
       inkscape:connector-curvature="0"
       id="path928"
       d="m 26.768971,121.68353 c -3.13387,5.36055 -3.27164,10.96925 2.08891,14.10311 5.36054,3.13387 9.75841,0.0157 12.89228,-5.34485 1.56693,-2.68027 0.99993,-3.71955 0.27032,-6.50286 -0.7296,-2.78333 -1.41243,-5.48958 -4.0927,-7.05651 -2.68028,-1.56693 -2.85931,0.91856 -5.64263,1.64818 -2.78332,0.7296 -3.94925,0.47266 -5.51618,3.15293 z"
       style="opacity:1;fill:#fbd065;fill-opacity:1;fill-rule:nonzero;stroke:#000000;stroke-width:1;stroke-linejoin:round;stroke-miterlimit:4;stroke-dasharray:none;stroke-opacity:1"
       inkscape:path-effect="#path-effect930"
       inkscape:original-d="m 22.402051,121.68353 c 3.13387,5.36055 3.27164,10.96925 -2.08891,14.10311 -5.36054,3.13387 -9.75841,0.0157 -12.8922797,-5.34485 -1.56693,-2.68027 -0.99993,-3.71955 -0.27032,-6.50286 0.7296,-2.78333 1.41243,-5.48958 4.0926997,-7.05651 2.68028,-1.56693 2.85931,0.91856 5.64263,1.64818 2.78332,0.7296 3.94925,0.47266 5.51618,3.15293 z" />
    <path
       id="path932"
       style="opacity:1;fill:#deb773;fill-opacity:1;fill-rule:nonzero;stroke:#000000;stroke-width:2;stroke-linejoin:round;stroke-miterlimit:4;stroke-dasharray:none;stroke-opacity:1"
       d="m 55.772327,176.77154 c -10.17385,0.0694 -21.526777,-3.86112 -29.369748,-3.68412 -6.469608,0.14598 -11.920432,-8.87154 -12.174748,-20.14119 -0.254316,-11.26965 4.784191,-20.52385 11.253807,-20.66986 7.842972,-0.17698 18.886442,-9.37777 29.073969,-9.42313 10.202678,-0.0454 21.357102,9.35445 29.200076,9.17747 6.469616,-0.14599 11.920441,8.87151 12.174756,20.14117 0.254306,11.26965 -4.784198,20.52388 -11.253806,20.66988 -7.842981,0.17697 -18.920026,3.86164 -28.904306,3.92978 z"
       inkscape:connector-curvature="0"
       sodipodi:nodetypes="sssssssss" />
    <path
       style="opacity:1;fill:#deb773;fill-opacity:1;fill-rule:nonzero;stroke:#000000;stroke-width:2;stroke-linejoin:round;stroke-miterlimit:4;stroke-dasharray:none;stroke-opacity:1"
       d="m 81.570691,152.88398 c 0,16.35301 -11.76795,24.20171 -25.92385,24.20171 -14.15589,0 -25.33918,-7.8487 -25.33918,-24.20171 0,-16.35301 11.47562,-29.60975 25.63151,-29.60975 14.1559,0 25.63152,13.25673 25.63152,29.60975 z"
       id="path934"
       inkscape:connector-curvature="0"
       sodipodi:nodetypes="sssss" />
    <path
       inkscape:original-d="m 177.93638,119.06753 c 1.13834,10.57331 4.98114,12.90441 -4.75975,16.22638 -9.16369,3.12513 -7.67458,0.3699 -9.51947,-11.03394 -1.86877,-11.55139 3.15608,-19.59708 6.92325,-20.55343 5.52066,-1.40149 6.49056,7.32281 7.35597,15.36099 z"
       inkscape:path-effect="#path-effect964"
       style="opacity:1;fill:#7e8b90;fill-opacity:1;fill-rule:nonzero;stroke:#000000;stroke-width:1.5;stroke-linejoin:round;stroke-miterlimit:4;stroke-dasharray:none;stroke-opacity:1"
       d="m 181.35086,119.06753 c -1.13834,10.57331 -4.98114,12.90441 4.75975,16.22638 9.16369,3.12513 7.67458,0.3699 9.51947,-11.03394 1.86877,-11.55139 -3.15608,-19.59708 -6.92325,-20.55343 -5.52066,-1.40149 -6.49056,7.32281 -7.35597,15.36099 z"
       id="path962"
       inkscape:connector-curvature="0"
       sodipodi:nodetypes="sssss" />
    <path
       sodipodi:nodetypes="sssss"
       inkscape:connector-curvature="0"
       id="path966"
       d="m 137.88771,137.18392 c 1.13834,10.57331 4.98114,12.90441 -4.75974,16.22638 -9.16369,3.12514 -7.67459,0.3699 -9.51948,-11.03394 -1.86877,-11.55139 3.15608,-19.59708 6.92326,-20.55343 5.52065,-1.40149 6.49055,7.32281 7.35596,15.36099 z"
       style="opacity:1;fill:#7e8b90;fill-opacity:1;fill-rule:nonzero;stroke:#000000;stroke-width:1.5;stroke-linejoin:round;stroke-miterlimit:4;stroke-dasharray:none;stroke-opacity:1" />
    <path
       sodipodi:nodetypes="sssssss"
       inkscape:connector-curvature="0"
       id="path968"
       d="m 189.47855,121.54257 c 3.13387,5.36056 3.27164,10.96925 -2.08891,14.10312 -5.36054,3.13386 -9.75841,0.0157 -12.89228,-5.34485 -1.56693,-2.68027 -0.99993,-3.71955 -0.27032,-6.50287 0.7296,-2.78333 1.41243,-5.48957 4.0927,-7.05651 2.68027,-1.56693 2.8593,0.91857 5.64263,1.64818 2.78332,0.7296 3.94925,0.47267 5.51618,3.15293 z"
       style="opacity:1;fill:#fbd065;fill-opacity:1;fill-rule:nonzero;stroke:#000000;stroke-width:1;stroke-linejoin:round;stroke-miterlimit:4;stroke-dasharray:none;stroke-opacity:1" />
    <path
       inkscape:original-d="m 127.88024,116.54695 c 3.13387,5.36055 3.27164,10.96925 -2.08891,14.10311 -5.36054,3.13387 -9.75841,0.0157 -12.89228,-5.34485 -1.56693,-2.68027 -0.99993,-3.71955 -0.27032,-6.50286 0.7296,-2.78333 1.41243,-5.48958 4.0927,-7.05651 2.68028,-1.56693 2.85931,0.91856 5.64263,1.64818 2.78332,0.7296 3.94925,0.47266 5.51618,3.15293 z"
       inkscape:path-effect="#path-effect972"
       style="opacity:1;fill:#fbd065;fill-opacity:1;fill-rule:nonzero;stroke:#000000;stroke-width:1;stroke-linejoin:round;stroke-miterlimit:4;stroke-dasharray:none;stroke-opacity:1"
       d="m 132.24716,116.54695 c -3.13387,5.36055 -3.27164,10.96925 2.08891,14.10311 5.36054,3.13387 9.75841,0.0157 12.89228,-5.34485 1.56693,-2.68027 0.99993,-3.71955 0.27032,-6.50286 -0.7296,-2.78333 -1.41243,-5.48958 -4.0927,-7.05651 -2.68028,-1.56693 -2.85931,0.91856 -5.64263,1.64818 -2.78332,0.7296 -3.94925,0.47266 -5.51618,3.15293 z"
       id="path970"
       inkscape:connector-curvature="0"
       sodipodi:nodetypes="sssssss" />
    <path
       sodipodi:nodetypes="sssssssss"
       inkscape:connector-curvature="0"
       d="m 164.34653,176.54689 c -10.0977,1.24441 -21.82872,-1.34816 -29.59872,-0.26621 -6.40942,0.89248 -12.86558,-7.43489 -14.42024,-18.59969 -1.55466,-11.1648 2.38092,-20.93916 8.79034,-21.83166 7.77001,-1.08193 17.67651,-11.49702 27.79057,-12.7191 10.12911,-1.22389 22.29485,6.82431 30.06486,5.74237 6.40942,-0.89248 12.86558,7.43487 14.42024,18.59968 1.55465,11.1648 -2.38092,20.93918 -8.79034,21.83167 -7.77001,1.08193 -18.34717,6.02171 -28.25671,7.24294 z"
       style="opacity:1;fill:#deb773;fill-opacity:1;fill-rule:nonzero;stroke:#000000;stroke-width:2;stroke-linejoin:round;stroke-miterlimit:4;stroke-dasharray:none;stroke-opacity:1"
       id="path974" />
    <path
       sodipodi:nodetypes="sssss"
       inkscape:connector-curvature="0"
       id="path976"
       d="m 187.04888,156.46503 c 0,16.35301 -11.76795,24.20171 -25.92385,24.20171 -14.15589,0 -25.33918,-7.8487 -25.33918,-24.20171 0,-16.35301 11.47562,-29.60975 25.63151,-29.60975 14.1559,0 25.63152,13.25673 25.63152,29.60975 z"
       style="opacity:1;fill:#deb773;fill-opacity:1;fill-rule:nonzero;stroke:#000000;stroke-width:2;stroke-linejoin:round;stroke-miterlimit:4;stroke-dasharray:none;stroke-opacity:1" />
  </g>
</svg>
