<?xml version="1.0" encoding="UTF-8" standalone="no"?>
<!-- Created with Inkscape (http://www.inkscape.org/) -->

<svg
   xmlns:dc="http://purl.org/dc/elements/1.1/"
   xmlns:cc="http://creativecommons.org/ns#"
   xmlns:rdf="http://www.w3.org/1999/02/22-rdf-syntax-ns#"
   xmlns:svg="http://www.w3.org/2000/svg"
   xmlns="http://www.w3.org/2000/svg"
   xmlns:sodipodi="http://sodipodi.sourceforge.net/DTD/sodipodi-0.dtd"
   xmlns:inkscape="http://www.inkscape.org/namespaces/inkscape"
   width="210mm"
   height="297mm"
   viewBox="0 0 210 297"
   version="1.1"
   id="svg8"
   inkscape:version="0.92.2 5c3e80d, 2017-08-06"
   sodipodi:docname="Maus.svg">
  <defs
     id="defs2" />
  <sodipodi:namedview
     id="base"
     pagecolor="#ffffff"
     bordercolor="#666666"
     borderopacity="1.0"
     inkscape:pageopacity="0.0"
     inkscape:pageshadow="2"
     inkscape:zoom="1.8614589"
     inkscape:cx="236.62531"
     inkscape:cy="985.77719"
     inkscape:document-units="mm"
     inkscape:current-layer="layer1"
     showgrid="false"
     inkscape:window-width="1920"
     inkscape:window-height="1106"
     inkscape:window-x="0"
     inkscape:window-y="1"
     inkscape:window-maximized="1"
     units="mm" />
  <metadata
     id="metadata5">
    <rdf:RDF>
      <cc:Work
         rdf:about="">
        <dc:format>image/svg+xml</dc:format>
        <dc:type
           rdf:resource="http://purl.org/dc/dcmitype/StillImage" />
        <dc:title></dc:title>
      </cc:Work>
    </rdf:RDF>
  </metadata>
  <g
     inkscape:label="Ebene 1"
     inkscape:groupmode="layer"
     id="layer1">
    <path
       style="opacity:1;fill:#565656;fill-opacity:0.98270892;fill-rule:nonzero;stroke:none;stroke-width:0.29681823;stroke-linejoin:round;stroke-miterlimit:4;stroke-dasharray:none;stroke-opacity:1"
       d="m 14.350485,4.3961969 v 1.28506 a 6.9897604,6.9897604 0 0 1 6.173136,5.8666711 h 1.290581 A 8.2736827,8.2736827 0 0 0 14.350485,4.3961969 Z m -1.55563,0.0031 A 8.2736827,8.2736827 0 0 0 5.4296098,11.547961 h 1.29733 A 6.9897604,6.9897604 0 0 1 12.794855,5.6996969 Z M 5.3835938,13.320786 a 8.2736827,8.2736827 0 0 0 7.4112612,7.533968 v -1.28816 A 6.9897604,6.9897604 0 0 1 6.6754038,13.320753 Z m 15.1927902,0 a 6.9897604,6.9897604 0 0 1 -6.225899,6.254429 v 1.293344 a 8.2736827,8.2736827 0 0 0 7.515255,-7.547773 z"
       id="path880"
       inkscape:connector-curvature="0" />
  </g>
</svg>
